<svg width="164" height="160" viewBox="0 0 164 160" fill="none" xmlns="http://www.w3.org/2000/svg">
<g filter="url(#filter0_d_25_1440)">
<path d="M28.7095 8.88947C17.464 11.471 9.42397 20.7875 8.56297 32.3C8.17747 37.1075 9.60097 44.8805 11.857 50.6075C15.298 59.3015 21.6775 68.738 29.3635 76.4825C32.5975 79.775 33.577 80.399 34.675 80.072C35.476 79.805 39.9265 75.473 42.835 72.0905C52.894 60.3995 58.6795 48.086 59.452 36.8105C59.9275 29.4815 58.354 23.726 54.349 18.3845C51.352 14.3495 46.1005 10.7885 41.086 9.33497C38.206 8.50397 31.4695 8.26547 28.7095 8.88947ZM39.1555 13.637C46.4245 15.506 52.3 21.3215 54.3175 28.622C55.06 31.2335 55.06 37.316 54.3175 40.787C52.7155 48.59 48.9475 56.3945 42.9535 64.436C40.7275 67.403 35.6845 73.2785 34.4965 74.258C34.111 74.585 33.607 74.198 31.144 71.588C23.6665 63.695 17.584 53.7845 15.0325 45.3875C13.6075 40.7 13.3705 39.1565 13.3405 34.409C13.3405 29.7215 13.726 27.821 15.328 24.647C19.75 15.8315 29.749 11.2325 39.1555 13.637Z" fill="white"/>
<path d="M30.49 22.211C26.188 23.606 22.894 27.374 22.063 31.943C20.668 39.479 27.3145 46.7495 35.0005 46.037C39.9265 45.5615 43.753 42.6245 45.5335 37.877C46.0675 36.482 46.156 35.711 46.0675 33.3365C45.979 30.8735 45.8305 30.251 44.9995 28.5305C43.783 26.0975 41.113 23.5745 38.7385 22.625C36.6925 21.8255 32.3605 21.6185 30.49 22.211ZM37.4335 27.167C40.1035 28.4435 41.974 31.8845 41.5585 34.793C40.846 40.0145 35.2675 42.953 30.6685 40.55C27.019 38.651 25.5655 34.4375 27.256 30.8465C29.125 26.87 33.517 25.298 37.4335 27.167Z" fill="white"/>
<path d="M124.522 67.9655C115.887 69.8645 108.588 76.4525 105.769 84.968C101.11 98.9435 109.359 119.862 126.006 136.241C128.617 138.822 129.685 139.446 130.783 139.029C131.644 138.674 138.349 131.819 140.902 128.615C143.542 125.321 147.46 119.387 149.359 115.856C154.759 105.678 156.776 94.61 154.7 86.51C152.353 77.2535 144.638 69.9245 135.143 67.907C132.71 67.403 126.983 67.4315 124.522 67.9655ZM135.173 72.6845C142.147 74.465 147.635 79.7465 150.04 86.927C150.634 88.766 150.722 89.5385 150.692 93.6035C150.692 98.618 150.217 101.229 148.436 106.362C145.766 114.018 139.564 123.66 132.502 131.079L129.95 133.749L127.606 131.256C118.23 121.316 111.91 110.159 109.744 99.833C109.002 96.362 109.002 90.278 109.714 87.6965C111.94 79.5665 118.615 73.5725 126.983 72.2075C129.031 71.8835 132.919 72.1205 135.173 72.6845Z" fill="white"/>
<path d="M126.005 81.407C125.144 81.734 123.988 82.268 123.454 82.5935C121.882 83.573 119.744 86.0645 118.885 87.905C118.172 89.4185 118.084 89.9525 118.084 92.861C118.084 95.918 118.144 96.2435 119.033 98.1425C121.348 103.038 126.778 105.887 131.941 104.937C137.282 103.958 141.08 100.13 142.03 94.76C142.919 89.7155 140.071 84.3455 135.235 81.971C133.484 81.11 132.92 80.9915 130.427 80.933C128.171 80.843 127.25 80.963 126.005 81.407ZM132.146 85.769C134.164 86.363 136.063 88.0835 136.924 90.101C138.616 94.0475 136.42 98.795 132.265 100.16C130.93 100.605 127.844 100.367 126.628 99.7445C122.029 97.3715 121.079 91.3175 124.729 87.668C126.895 85.502 129.239 84.8795 132.146 85.769Z" fill="white"/>
<path d="M42.7749 81.764C40.3119 82.091 39.7779 82.358 39.3039 83.4845C38.8584 84.6125 39.3924 85.8875 40.5204 86.303C41.7369 86.7185 45.6834 86.2445 46.5729 85.532C47.9679 84.434 47.3154 81.9425 45.5349 81.6455C45.1194 81.5555 43.8729 81.6155 42.7749 81.764Z" fill="white"/>
<path d="M59.095 82.031C58.1455 82.802 57.997 84.2855 58.828 85.295C59.4805 86.096 62.7745 86.5999 63.931 86.066C65.029 85.562 65.563 84.2855 65.1175 83.1875C64.642 82.0595 64.198 81.8525 61.8535 81.5855C60.133 81.407 59.836 81.467 59.095 82.031Z" fill="white"/>
<path d="M70.786 84.0785C70.1035 84.761 69.955 86.156 70.459 87.0755C70.6675 87.4325 71.557 87.9065 72.8335 88.292C74.614 88.826 74.9995 88.856 75.712 88.499C76.7215 88.025 77.1955 86.7785 76.81 85.6505C76.483 84.671 74.911 83.84 72.8935 83.603C71.6455 83.4545 71.32 83.5445 70.786 84.0785Z" fill="white"/>
<path d="M81.913 88.5875C81.052 89.27 80.845 90.7535 81.5275 91.5845C82.15 92.4155 84.7915 93.899 85.5925 93.899C87.1645 93.899 88.174 91.8515 87.373 90.308C86.9875 89.5955 84.169 87.9635 83.338 87.9635C82.981 87.965 82.357 88.232 81.913 88.5875Z" fill="white"/>
<path d="M90.9324 96.362C89.7759 96.956 89.5374 98.054 90.2199 100.011C90.9909 102.386 91.4964 102.92 92.86 102.92C94.9675 102.92 95.65 100.932 94.522 98.261C93.6325 96.2135 92.476 95.591 90.9324 96.362Z" fill="white"/>
<path d="M88.114 107.222C87.64 107.519 86.779 108.201 86.275 108.675C84.4945 110.367 85.237 112.889 87.4915 112.889C88.2925 112.889 88.8565 112.592 90.073 111.464C91.942 109.743 92.179 108.527 90.8155 107.339C89.8345 106.509 89.2705 106.481 88.114 107.222Z" fill="white"/>
<path d="M76.6899 114.017C74.7609 114.966 74.1969 116.004 74.9394 117.281C75.1764 117.726 75.7404 118.26 76.1559 118.467C76.8384 118.794 77.1939 118.734 78.9159 118.052C79.9839 117.636 80.9934 117.014 81.1419 116.717C81.6174 115.827 81.4689 114.402 80.8449 113.78C80.0424 112.979 78.6489 113.037 76.6899 114.017Z" fill="white"/>
<path d="M65.77 117.785C64.108 118.289 63.337 119.001 63.337 120.039C63.337 121.256 63.604 121.76 64.5835 122.265C65.3845 122.681 65.6215 122.681 67.5505 122.087C69.331 121.553 69.6565 121.344 70.0135 120.543C70.2805 119.861 70.3105 119.357 70.102 118.763C69.598 117.311 68.263 117.014 65.77 117.785Z" fill="white"/>
<path d="M57.7885 125.708C55.9495 127.785 55.444 129.921 56.512 130.989C57.106 131.583 58.381 131.76 59.3005 131.405C60.1015 131.108 61.9405 127.547 61.7035 126.776C61.1425 124.967 58.975 124.403 57.7885 125.708Z" fill="white"/>
<path d="M54.199 136.508C53.2195 137.19 52.9825 138.021 53.2795 140.039C53.665 142.857 55.5055 143.985 57.286 142.472C58.057 141.819 58.057 141.729 57.85 139.593C57.6715 137.901 57.4945 137.279 56.9305 136.715C56.128 135.915 55.1485 135.825 54.199 136.508Z" fill="white"/>
<path d="M117.281 141.522C116.332 141.701 115.352 142.056 115.085 142.293C113.839 143.303 114.017 145.083 115.412 146.003C116.155 146.478 116.332 146.478 118.616 146.003C120.1 145.677 121.316 145.232 121.732 144.846C122.621 144.015 122.593 142.562 121.702 141.731C120.931 140.988 119.893 140.93 117.281 141.522Z" fill="white"/>
<path d="M98.647 144.965C96.0069 145.38 94.9374 147.161 96.3025 148.911C96.778 149.534 97.1635 149.682 98.1415 149.682C102.028 149.652 103.957 147.725 102.146 145.706C101.288 144.786 100.664 144.639 98.647 144.965Z" fill="white"/>
<path d="M60.7555 145.589C59.242 147.191 60.31 149.001 63.2185 149.861C64.732 150.306 65.029 150.306 65.7115 149.919C66.127 149.712 66.631 149.148 66.8395 148.703C67.6405 147.011 65.7415 145.291 62.7745 144.994C61.6165 144.907 61.3195 144.995 60.7555 145.589Z" fill="white"/>
<path d="M85.147 146.776C82.8325 148.022 83.7235 151.167 86.3935 151.167C90.1614 151.137 91.9719 149.298 90.3099 147.191C89.7759 146.509 89.5089 146.42 87.7285 146.42C86.6305 146.419 85.4725 146.597 85.147 146.776Z" fill="white"/>
<path d="M72.4465 147.546C71.704 148.347 71.794 150.128 72.595 150.87C73.099 151.344 73.633 151.464 75.235 151.464C77.728 151.464 78.1435 151.316 78.6175 150.188C79.063 149.12 78.706 147.755 77.875 147.309C77.578 147.131 76.3315 147.012 75.115 147.012C73.366 147.012 72.832 147.131 72.4465 147.546Z" fill="white"/>
</g>
<defs>
<filter id="filter0_d_25_1440" x="-1" y="-3" width="166" height="166" filterUnits="userSpaceOnUse" color-interpolation-filters="sRGB">
<feFlood flood-opacity="0" result="BackgroundImageFix"/>
<feColorMatrix in="SourceAlpha" type="matrix" values="0 0 0 0 0 0 0 0 0 0 0 0 0 0 0 0 0 0 127 0" result="hardAlpha"/>
<feOffset/>
<feGaussianBlur stdDeviation="4"/>
<feColorMatrix type="matrix" values="0 0 0 0 0 0 0 0 0 0 0 0 0 0 0 0 0 0 1 0"/>
<feBlend mode="normal" in2="BackgroundImageFix" result="effect1_dropShadow_25_1440"/>
<feBlend mode="normal" in="SourceGraphic" in2="effect1_dropShadow_25_1440" result="shape"/>
</filter>
</defs>
</svg>
