<svg width="75" height="40" viewBox="0 0 75 40" fill="none" xmlns="http://www.w3.org/2000/svg">
<rect width="75" height="40" fill="white"/>
<path d="M20 32.252C18.568 32.252 17.188 32.084 15.86 31.804L10.092 35.272L10.168 29.588C5.748 26.928 2.848 22.536 2.848 17.552C2.848 9.43202 10.528 2.85202 20 2.85202C29.472 2.85202 37.152 9.43202 37.152 17.552C37.152 25.668 29.472 32.252 20 32.252ZM20 0.400024C9.176 0.400024 0.400002 8.08002 0.400002 17.552C0.400002 22.964 3.272 27.784 7.752 30.928V39.6L16.34 34.392C17.528 34.588 18.752 34.7 20.004 34.7C30.828 34.7 39.604 27.02 39.604 17.548C39.6 8.08002 30.824 0.400024 20 0.400024Z" fill="black"/>
<path d="M28.5836 11.7448L22.8472 15.5413L18.9892 13.3643L27.5926 10.292C27.7764 10.2329 27.973 10.2366 28.1657 10.328L28.5552 10.5319C28.995 10.7691 29.5354 11.073 28.5836 11.7448Z" fill="black"/>
<path d="M7.38837 10.7777C8.0921 9.63393 10.6014 9.5602 12.3854 10.4169C13.3738 10.8911 28.2156 19.4792 28.2156 19.4792L33.9446 17.5773C34.2288 17.4762 34.5383 17.5004 34.8064 17.6419L35.7363 18.1497C35.8577 18.2121 35.875 18.4044 35.7623 18.4925L31.7677 21.4353C31.4463 21.6746 31.3805 22.1014 31.5989 22.427C31.7585 22.6775 31.6255 22.9874 31.3329 23.0467C29.6145 23.2647 26.2007 22.9561 23.9102 21.9627C21.4522 20.8945 19.4128 19.959 19.4128 19.959L16.3457 27.1528C16.2003 27.5087 15.7783 27.6813 15.4182 27.515L14.7021 27.2033C14.4383 27.0827 14.2702 26.7904 14.2987 26.5017L15.1226 17.2604C15.1226 17.2604 10.8409 14.6036 9.6554 13.9084C8.46988 13.2131 6.68463 11.9214 7.38837 10.7777Z" fill="black"/>
<path d="M48.096 15C47.9893 15 47.8987 14.9627 47.824 14.888C47.7493 14.8133 47.712 14.7227 47.712 14.616V5.768H44.752C44.6453 5.768 44.5547 5.73067 44.48 5.656C44.4053 5.58133 44.368 5.49067 44.368 5.384V4.2C44.368 4.08267 44.4053 3.98667 44.48 3.912C44.5547 3.83733 44.6453 3.8 44.752 3.8H52.912C53.0293 3.8 53.1253 3.83733 53.2 3.912C53.2747 3.98667 53.312 4.08267 53.312 4.2V5.384C53.312 5.49067 53.2747 5.58133 53.2 5.656C53.1253 5.73067 53.0293 5.768 52.912 5.768H49.968V14.616C49.968 14.7227 49.9307 14.8133 49.856 14.888C49.7813 14.9627 49.6853 15 49.568 15H48.096ZM54.065 15C53.9583 15 53.8677 14.9627 53.793 14.888C53.7183 14.8133 53.681 14.7227 53.681 14.616V7.08C53.681 6.96267 53.7183 6.86667 53.793 6.792C53.8677 6.71733 53.9583 6.68 54.065 6.68H55.361C55.4677 6.68 55.5583 6.71733 55.633 6.792C55.7183 6.86667 55.761 6.96267 55.761 7.08V7.736C56.0063 7.39467 56.321 7.13333 56.705 6.952C57.0997 6.77067 57.553 6.68 58.065 6.68H58.721C58.8383 6.68 58.929 6.71733 58.993 6.792C59.0677 6.86667 59.105 6.95733 59.105 7.064V8.216C59.105 8.32267 59.0677 8.41333 58.993 8.488C58.929 8.56267 58.8383 8.6 58.721 8.6H57.473C56.961 8.6 56.561 8.744 56.273 9.032C55.9957 9.32 55.857 9.71467 55.857 10.216V14.616C55.857 14.7227 55.8197 14.8133 55.745 14.888C55.6703 14.9627 55.5743 15 55.457 15H54.065ZM60.7369 15C60.6302 15 60.5395 14.9627 60.4649 14.888C60.3902 14.8133 60.3529 14.7227 60.3529 14.616V7.064C60.3529 6.95733 60.3902 6.86667 60.4649 6.792C60.5395 6.71733 60.6302 6.68 60.7369 6.68H62.0649C62.1822 6.68 62.2729 6.71733 62.3369 6.792C62.4115 6.86667 62.4489 6.95733 62.4489 7.064V14.616C62.4489 14.7227 62.4115 14.8133 62.3369 14.888C62.2729 14.9627 62.1822 15 62.0649 15H60.7369ZM60.6729 5.304C60.5555 5.304 60.4595 5.272 60.3849 5.208C60.3209 5.13333 60.2889 5.03733 60.2889 4.92V3.768C60.2889 3.66133 60.3209 3.57067 60.3849 3.496C60.4595 3.42133 60.5555 3.384 60.6729 3.384H62.1289C62.2462 3.384 62.3422 3.42133 62.4169 3.496C62.4915 3.57067 62.5289 3.66133 62.5289 3.768V4.92C62.5289 5.03733 62.4915 5.13333 62.4169 5.208C62.3422 5.272 62.2462 5.304 62.1289 5.304H60.6729ZM65.2998 18.04C65.1931 18.04 65.1024 18.0027 65.0278 17.928C64.9531 17.8533 64.9158 17.7627 64.9158 17.656V7.064C64.9158 6.95733 64.9531 6.86667 65.0278 6.792C65.1024 6.71733 65.1931 6.68 65.2998 6.68H66.5638C66.6811 6.68 66.7718 6.71733 66.8358 6.792C66.9104 6.86667 66.9478 6.95733 66.9478 7.064V7.704C67.2038 7.36267 67.5398 7.08 67.9557 6.856C68.3718 6.632 68.8891 6.52 69.5078 6.52C70.0731 6.52 70.5638 6.61067 70.9798 6.792C71.3958 6.97333 71.7424 7.23467 72.0198 7.576C72.2971 7.90667 72.5104 8.30133 72.6597 8.76C72.8091 9.21867 72.8944 9.72533 72.9158 10.28C72.9264 10.4613 72.9318 10.648 72.9318 10.84C72.9318 11.032 72.9264 11.224 72.9158 11.416C72.9051 11.9493 72.8251 12.4453 72.6758 12.904C72.5264 13.352 72.3078 13.7467 72.0198 14.088C71.7424 14.4187 71.3958 14.68 70.9798 14.872C70.5638 15.064 70.0731 15.16 69.5078 15.16C68.9318 15.16 68.4411 15.0587 68.0358 14.856C67.6304 14.6427 67.2998 14.3653 67.0438 14.024V17.656C67.0438 17.7627 67.0064 17.8533 66.9318 17.928C66.8678 18.0027 66.7771 18.04 66.6598 18.04H65.2998ZM68.9158 13.448C69.3744 13.448 69.7318 13.352 69.9878 13.16C70.2438 12.9573 70.4251 12.696 70.5318 12.376C70.6491 12.056 70.7184 11.704 70.7398 11.32C70.7611 11 70.7611 10.68 70.7398 10.36C70.7184 9.976 70.6491 9.624 70.5318 9.304C70.4251 8.984 70.2438 8.728 69.9878 8.536C69.7318 8.33333 69.3744 8.232 68.9158 8.232C68.4784 8.232 68.1211 8.33333 67.8438 8.536C67.5771 8.73867 67.3798 9 67.2518 9.32C67.1344 9.62933 67.0651 9.94933 67.0438 10.28C67.0331 10.472 67.0278 10.6747 67.0278 10.888C67.0278 11.1013 67.0331 11.3093 67.0438 11.512C67.0544 11.832 67.1291 12.1413 67.2678 12.44C67.4064 12.728 67.6091 12.968 67.8758 13.16C68.1424 13.352 68.4891 13.448 68.9158 13.448ZM48.096 34C47.9893 34 47.8987 33.9627 47.824 33.888C47.7493 33.8133 47.712 33.7227 47.712 33.616V24.768H44.752C44.6453 24.768 44.5547 24.7307 44.48 24.656C44.4053 24.5813 44.368 24.4907 44.368 24.384V23.2C44.368 23.0827 44.4053 22.9867 44.48 22.912C44.5547 22.8373 44.6453 22.8 44.752 22.8H52.912C53.0293 22.8 53.1253 22.8373 53.2 22.912C53.2747 22.9867 53.312 23.0827 53.312 23.2V24.384C53.312 24.4907 53.2747 24.5813 53.2 24.656C53.1253 24.7307 53.0293 24.768 52.912 24.768H49.968V33.616C49.968 33.7227 49.9307 33.8133 49.856 33.888C49.7813 33.9627 49.6853 34 49.568 34H48.096ZM55.722 34.16C55.1673 34.16 54.666 34.0533 54.218 33.84C53.77 33.616 53.4127 33.3227 53.146 32.96C52.89 32.5867 52.762 32.1707 52.762 31.712C52.762 30.9653 53.0607 30.3733 53.658 29.936C54.266 29.488 55.066 29.1893 56.058 29.04L58.25 28.72V28.384C58.25 27.936 58.138 27.5893 57.914 27.344C57.69 27.0987 57.306 26.976 56.762 26.976C56.378 26.976 56.0633 27.056 55.818 27.216C55.5833 27.3653 55.4073 27.568 55.29 27.824C55.2047 27.9627 55.082 28.032 54.922 28.032H53.658C53.5407 28.032 53.45 28 53.386 27.936C53.3327 27.872 53.306 27.7867 53.306 27.68C53.3167 27.5093 53.386 27.3013 53.514 27.056C53.642 26.8107 53.8447 26.576 54.122 26.352C54.3993 26.1173 54.7567 25.92 55.194 25.76C55.6313 25.6 56.1593 25.52 56.778 25.52C57.45 25.52 58.0153 25.6053 58.474 25.776C58.9433 25.936 59.3167 26.1547 59.594 26.432C59.8713 26.7093 60.074 27.0347 60.202 27.408C60.33 27.7813 60.394 28.176 60.394 28.592V33.616C60.394 33.7227 60.3567 33.8133 60.282 33.888C60.2073 33.9627 60.1167 34 60.01 34H58.714C58.5967 34 58.5007 33.9627 58.426 33.888C58.362 33.8133 58.33 33.7227 58.33 33.616V32.992C58.1913 33.1947 58.0047 33.3867 57.77 33.568C57.5353 33.7387 57.2473 33.8827 56.906 34C56.5753 34.1067 56.1807 34.16 55.722 34.16ZM56.266 32.64C56.6393 32.64 56.9753 32.56 57.274 32.4C57.5833 32.24 57.8233 31.9947 57.994 31.664C58.1753 31.3227 58.266 30.896 58.266 30.384V30.048L56.666 30.304C56.0367 30.4 55.5673 30.5547 55.258 30.768C54.9487 30.9813 54.794 31.2427 54.794 31.552C54.794 31.7867 54.8633 31.9893 55.002 32.16C55.1513 32.32 55.338 32.4427 55.562 32.528C55.786 32.6027 56.0207 32.64 56.266 32.64ZM62.8466 34C62.74 34 62.6493 33.9627 62.5746 33.888C62.5 33.8133 62.4626 33.7227 62.4626 33.616V23.024C62.4626 22.9173 62.5 22.8267 62.5746 22.752C62.6493 22.6773 62.74 22.64 62.8466 22.64H64.1746C64.2813 22.64 64.372 22.6773 64.4466 22.752C64.5213 22.8267 64.5586 22.9173 64.5586 23.024V33.616C64.5586 33.7227 64.5213 33.8133 64.4466 33.888C64.372 33.9627 64.2813 34 64.1746 34H62.8466ZM67.081 34C66.9743 34 66.8837 33.9627 66.809 33.888C66.7343 33.8133 66.697 33.7227 66.697 33.616V23.024C66.697 22.9173 66.7343 22.8267 66.809 22.752C66.8837 22.6773 66.9743 22.64 67.081 22.64H68.377C68.4943 22.64 68.585 22.6773 68.649 22.752C68.7237 22.8267 68.761 22.9173 68.761 23.024V28.496L71.449 25.952C71.545 25.8667 71.6303 25.8027 71.705 25.76C71.7797 25.7067 71.8917 25.68 72.041 25.68H73.529C73.6357 25.68 73.721 25.712 73.785 25.776C73.849 25.84 73.881 25.9253 73.881 26.032C73.881 26.0747 73.8703 26.1227 73.849 26.176C73.8277 26.2293 73.785 26.2773 73.721 26.32L70.425 29.408L74.121 33.376C74.2277 33.4827 74.281 33.5733 74.281 33.648C74.281 33.7547 74.2437 33.84 74.169 33.904C74.105 33.968 74.025 34 73.929 34H72.409C72.249 34 72.1317 33.9787 72.057 33.936C71.993 33.8827 71.913 33.8133 71.817 33.728L68.761 30.512V33.616C68.761 33.7227 68.7237 33.8133 68.649 33.888C68.585 33.9627 68.4943 34 68.377 34H67.081Z" fill="black"/>
</svg>
